# xmcd
#
# Track frame offsets: 
#        150
#        12537
#        24814
#        37991
#        51297
#        63023
#        74234
#        86141
#        97742
#        107039
#        120031
#        130579
#        142534
#        153608
#        165828
#        178845
#        193002
#        200557
#        211065
#        218273
#
# Disc length: 3624 seconds
#
# Revision: 0
# Processed by: cddbd v1.5.2PL0 Copyright (c) Steve Scherf et al.
# Submitted via: ExactAudioCopyFreeDBPlugin 1.0
#
DISCID=fd0e2614
DTITLE=Hank Williams - Big Box of Hank Williams [D4]
DYEAR=2012
DGENRE=Country
TTITLE0=My Love For You (Has Turned to Hate)
TTITLE1=Half as Much [Live]
TTITLE2=On the Banks of the Old Pontchartrain
TTITLE3=Mind Your Own Business
TTITLE4=My Son Calls Another Man Daddy
TTITLE5=(I Heard That) Lonesome Whistle
TTITLE6=I'm Satisfied With You
TTITLE7=Baby We're Really in Love
TTITLE8=There's Nothing as Sweet as My Baby
TTITLE9=Why Don't You Make Up Your Mind?
TTITLE10=Lost on the River
TTITLE11=Why Should We Try Anymore?
TTITLE12=My Heart Would Know
TTITLE13=The Old Country Church
TTITLE14=Cold Cold Heart [Live]
TTITLE15=Why Don't You Love Me
TTITLE16=You Broke Your Own Heart
TTITLE17=I Told a Lie to My Heart
TTITLE18=Where the Soul of a Man Never Dies
TTITLE19=Medley [7 Songs]
EXTD=
EXTT0=
EXTT1=
EXTT2=
EXTT3=
EXTT4=
EXTT5=
EXTT6=
EXTT7=
EXTT8=
EXTT9=
EXTT10=
EXTT11=
EXTT12=
EXTT13=
EXTT14=
EXTT15=
EXTT16=
EXTT17=
EXTT18=
EXTT19=
PLAYORDER=
